# xmcd CD database file
#
# Track frame offsets:
#	150
#	16640
#	47298
#	67034
#	103825
#	116839
#	126523
#	153792
#	179179
#	201450
#
# Disc length: 2905 seconds
#
# Revision: 0
# Processed by: cddbd v1.5.2PL0 Copyright (c) Steve Scherf et al.
# Submitted via: CDex 1.51
#
DISCID=8e0b570a
DTITLE=Bob Wyat, Lupa Santiago e Marcos Paiva - Regra de Três
DYEAR=2007
DGENRE=Jazz
TTITLE0=Be Bob
TTITLE1=O corvo
TTITLE2=Regra de Tres
TTITLE3=Cidade Oculta
TTITLE4=Mr. Leel
TTITLE5=Canção
TTITLE6=Caverna da Valsa Afro
TTITLE7=Bob´s Idea
TTITLE8=Pormenores
TTITLE9=Mínima Lista
EXTD=YEAR: 2007
EXTT0=
EXTT1=
EXTT2=
EXTT3=
EXTT4=
EXTT5=
EXTT6=
EXTT7=
EXTT8=
EXTT9=
PLAYORDER=
